<svg width="754" height="201" viewBox="0 0 754 201" fill="none" xmlns="http://www.w3.org/2000/svg">
<path d="M117.568 50.82V162H87.048V145.432C83.8507 151.536 78.982 156.332 72.442 159.82C65.902 163.308 58.6353 165.052 50.642 165.052C41.05 165.052 32.4027 162.581 24.7 157.64C17.1427 152.699 11.184 145.795 6.824 136.93C2.60933 127.919 0.502 117.746 0.502 106.41C0.502 95.074 2.60933 84.9733 6.824 76.108C11.184 67.0973 17.1427 60.1213 24.7 55.18C32.4027 50.2387 41.05 47.768 50.642 47.768C58.6353 47.768 65.902 49.512 72.442 53C78.982 56.488 83.8507 61.284 87.048 67.388V50.82H117.568ZM59.798 137.148C68.3727 137.148 75.1307 134.387 80.072 128.864C85.1587 123.196 87.702 115.711 87.702 106.41C87.702 97.1087 85.1587 89.6967 80.072 84.174C75.1307 78.506 68.3727 75.672 59.798 75.672C51.2233 75.672 44.3927 78.506 39.306 84.174C34.3647 89.6967 31.894 97.1087 31.894 106.41C31.894 115.711 34.3647 123.196 39.306 128.864C44.3927 134.387 51.2233 137.148 59.798 137.148ZM156.493 77.852H136.001V50.82H156.493V37.522C156.493 12.8153 170.154 0.461988 197.477 0.461988C203.436 0.461988 209.685 1.11599 216.225 2.42399V28.584C211.574 27.712 207.432 27.276 203.799 27.276C197.986 27.276 193.771 28.366 191.155 30.546C188.684 32.726 187.449 36.1413 187.449 40.792V50.82H216.225V77.852H187.449V162H156.493V77.852ZM272.954 163.744C263.944 163.744 256.168 161.927 249.628 158.294C243.088 154.661 238.074 149.501 234.586 142.816C231.098 135.985 229.354 127.992 229.354 118.836C229.354 111.715 230.154 104.593 231.752 97.472C233.351 90.2053 235.676 83.3747 238.728 76.98C241.926 70.5853 245.85 64.9173 250.5 59.976C255.151 54.8893 260.601 50.8927 266.85 47.986C273.1 45.0793 280.076 43.626 287.778 43.626C296.934 43.626 304.71 45.4427 311.104 49.076C317.644 52.7093 322.658 57.9413 326.146 64.772C329.634 71.4573 331.378 79.4507 331.378 88.752C331.378 95.8733 330.579 102.995 328.98 110.116C327.382 117.237 324.984 124.068 321.786 130.608C318.734 137.003 314.883 142.671 310.232 147.612C305.582 152.553 300.132 156.477 293.882 159.384C287.633 162.291 280.657 163.744 272.954 163.744ZM274.044 147.83C278.259 147.83 282.183 146.958 285.816 145.214C289.595 143.47 293.083 140.927 296.28 137.584C299.478 134.096 302.166 129.881 304.346 124.94C306.672 119.853 308.488 114.113 309.796 107.718C311.104 101.323 311.758 94.2747 311.758 86.572C311.758 82.212 310.959 77.9973 309.36 73.928C307.907 69.7133 305.436 66.298 301.948 63.682C298.46 60.9207 293.81 59.54 287.996 59.54C283.2 59.54 278.768 60.5573 274.698 62.592C270.629 64.6267 266.996 67.5333 263.798 71.312C260.601 74.9453 257.84 79.3053 255.514 84.392C253.334 89.3333 251.663 94.7833 250.5 100.742C249.338 106.701 248.756 112.95 248.756 119.49C248.756 128.501 250.936 135.477 255.296 140.418C259.802 145.359 266.051 147.83 274.044 147.83ZM265.76 200.15C262.999 200.15 260.601 199.278 258.566 197.534C256.532 195.79 255.514 193.247 255.514 189.904C255.514 186.125 256.604 182.855 258.784 180.094C261.11 177.333 264.307 175.952 268.376 175.952C270.702 175.952 272.518 176.388 273.826 177.26C275.28 178.132 276.37 179.295 277.096 180.748C277.823 182.201 278.186 183.873 278.186 185.762C278.186 190.267 276.878 193.755 274.262 196.226C271.792 198.842 268.958 200.15 265.76 200.15ZM355.462 2.42399H386.418V162H355.462V2.42399ZM532.112 51.474L516.416 162H495.924L498.54 143.034C494.325 149.865 488.439 155.242 480.882 159.166C473.47 163.09 465.331 165.052 456.466 165.052C447.455 165.052 439.535 163.017 432.704 158.948C425.873 154.733 420.496 148.92 416.572 141.508C412.793 133.951 410.904 125.231 410.904 115.348C410.904 105.756 412.721 96.4547 416.354 87.444C419.987 78.4333 425.001 70.8033 431.396 64.554C436.483 59.4673 442.441 55.5433 449.272 52.782C456.103 49.8753 463.297 48.422 470.854 48.422C480.155 48.422 488.221 50.5293 495.052 54.744C502.028 58.9587 506.606 64.6267 508.786 71.748L511.62 51.474H532.112ZM490.256 134.968C494.907 130.753 498.54 125.449 501.156 119.054C503.772 112.514 505.08 105.901 505.08 99.216C505.08 89.4787 502.319 81.776 496.796 76.108C491.419 70.2947 484.007 67.388 474.56 67.388C469.037 67.388 463.878 68.4053 459.082 70.44C454.286 72.3293 450.071 75.0907 446.438 78.724C441.787 83.3747 438.227 88.8973 435.756 95.292C433.431 101.687 432.268 108.081 432.268 114.476C432.268 124.068 434.884 131.771 440.116 137.584C445.493 143.252 452.833 146.086 462.134 146.086C467.511 146.086 472.598 145.141 477.394 143.252C482.335 141.217 486.623 138.456 490.256 134.968ZM496.796 0.461988H522.302L489.384 33.162H467.584L496.796 0.461988ZM623.514 47.768C633.106 47.768 641.753 50.2387 649.456 55.18C657.158 60.1213 663.117 67.0973 667.332 76.108C671.692 84.9733 673.872 95.074 673.872 106.41C673.872 117.746 671.692 127.919 667.332 136.93C663.117 145.795 657.158 152.699 649.456 157.64C641.753 162.581 633.106 165.052 623.514 165.052C615.52 165.052 608.254 163.308 601.714 159.82C595.174 156.332 590.305 151.463 587.108 145.214V162H556.806V2.42399H587.762V66.298C591.104 60.4847 595.9 55.9793 602.15 52.782C608.544 49.4393 615.666 47.768 623.514 47.768ZM614.358 137.148C622.932 137.148 629.69 134.387 634.632 128.864C639.718 123.196 642.262 115.711 642.262 106.41C642.262 97.1087 639.718 89.6967 634.632 84.174C629.69 78.506 622.932 75.672 614.358 75.672C605.783 75.672 599.025 78.506 594.084 84.174C589.142 89.6967 586.672 97.1087 586.672 106.41C586.672 115.711 589.142 123.196 594.084 128.864C599.025 134.387 605.783 137.148 614.358 137.148ZM728.929 0.461988H753.563L725.223 33.162H704.731L728.929 0.461988ZM708.001 51.474H728.493L712.797 162H692.305L708.001 51.474Z" fill="#FDFDF8" fill-opacity="0.15"/>
</svg>
