<svg width="526" height="170" viewBox="0 0 526 170" fill="none" xmlns="http://www.w3.org/2000/svg">
<g opacity="0.1">
<rect x="25" y="30" width="8" height="110" rx="4" fill="#0EA5E9" fill-opacity="0.2"/>
<rect x="43" y="3" width="8" height="164" rx="4" fill="#0EA5E9"/>
<rect x="61" y="55" width="8" height="60" rx="4" fill="#0EA5E9" fill-opacity="0.2"/>
<rect x="79" y="30" width="8" height="110" rx="4" fill="#0EA5E9" fill-opacity="0.2"/>
<rect x="97" y="15" width="8" height="140" rx="4" fill="#0EA5E9" fill-opacity="0.2"/>
<rect x="115" width="8" height="170" rx="4" fill="#0EA5E9"/>
<rect x="133" y="30" width="8" height="110" rx="4" fill="#0EA5E9" fill-opacity="0.2"/>
<rect x="151" y="38" width="8" height="94" rx="4" fill="#0EA5E9" fill-opacity="0.2"/>
<rect x="169" y="55" width="8" height="60" rx="4" fill="#0EA5E9" fill-opacity="0.2"/>
<rect x="187" y="30" width="8" height="110" rx="4" fill="#0EA5E9" fill-opacity="0.2"/>
<rect x="205" y="23" width="8" height="124" rx="4" fill="#0EA5E9"/>
<rect x="223" y="55" width="8" height="60" rx="4" fill="#0EA5E9" fill-opacity="0.2"/>
<rect x="241" y="39" width="8" height="92" rx="4" fill="#0EA5E9" fill-opacity="0.2"/>
<rect x="259" y="16.5" width="8" height="137" rx="4" fill="#0EA5E9"/>
<rect x="277" y="67" width="8" height="36" rx="4" fill="#0EA5E9" fill-opacity="0.2"/>
<rect x="295" y="44" width="8" height="82" rx="4" fill="#0EA5E9" fill-opacity="0.2"/>
<rect x="313" width="8" height="170" rx="4" fill="#0EA5E9"/>
<rect x="331" y="55" width="8" height="60" rx="4" fill="#0EA5E9" fill-opacity="0.2"/>
<rect x="349" y="30" width="8" height="110" rx="4" fill="#0EA5E9" fill-opacity="0.2"/>
<rect x="367" y="13" width="8" height="144" rx="4" fill="#0EA5E9"/>
<rect x="385" y="23" width="8" height="124" rx="4" fill="#0EA5E9" fill-opacity="0.2"/>
<rect x="403" y="44" width="8" height="82" rx="4" fill="#0EA5E9" fill-opacity="0.2"/>
<rect x="421" y="3" width="8" height="164" rx="4" fill="#0EA5E9"/>
<rect x="439" y="47" width="8" height="76" rx="4" fill="#0EA5E9" fill-opacity="0.2"/>
<rect x="457" y="20.5" width="8" height="129" rx="4" fill="#0EA5E9" fill-opacity="0.2"/>
<rect x="475" y="15" width="8" height="140" rx="4" fill="#0EA5E9"/>
<rect x="493" y="26.5" width="8" height="117" rx="4" fill="#0EA5E9" fill-opacity="0.2"/>
<rect x="511" y="47" width="8" height="76" rx="4" fill="#0EA5E9" fill-opacity="0.2"/>
</g>
<path opacity="0.2" d="M244.5 155.75L253.75 109.5L216.75 95.625L281.5 26.25L272.25 72.5L309.25 86.375L244.5 155.75Z" fill="#0EA5E9"/>
<path d="M244.5 162.417L253.75 116.167L216.75 102.292L281.5 32.9165L272.25 79.1665L309.25 93.0415L244.5 162.417Z" stroke="#0EA5E9" stroke-width="10" stroke-miterlimit="3.99933" stroke-linecap="round" stroke-linejoin="round"/>
</svg>
