<svg width="808" height="170" viewBox="0 0 808 170" fill="none" xmlns="http://www.w3.org/2000/svg">
<rect x="342" y="170" width="6" height="170" rx="3" transform="rotate(-180 342 170)" fill="#03301F" fill-opacity="0.6"/>
<rect x="322" y="170" width="17" height="170" rx="6" transform="rotate(-180 322 170)" fill="#03301F" fill-opacity="0.6"/>
<rect x="291" y="170" width="36" height="170" rx="6" transform="rotate(-180 291 170)" fill="#03301F" fill-opacity="0.6"/>
<rect x="241" y="170" width="53" height="170" rx="6" transform="rotate(-180 241 170)" fill="#03301F" fill-opacity="0.6"/>
<rect x="174" y="170" width="71" height="170" rx="6" transform="rotate(-180 174 170)" fill="#03301F" fill-opacity="0.6"/>
<rect x="89" y="170" width="89" height="170" rx="6" transform="rotate(-180 89 170)" fill="#03301F" fill-opacity="0.6"/>
<rect x="371" y="21.5" width="127" height="127" rx="63.5" fill="#03301F" fill-opacity="0.6"/>
<g clip-path="url(#clip0_670_297)">
<path opacity="0.2" d="M435 118.5C453.225 118.5 468 103.725 468 85.5C468 67.2746 453.225 52.5 435 52.5C416.775 52.5 402 67.2746 402 85.5C402 103.725 416.775 118.5 435 118.5Z" fill="#16A34A"/>
<path d="M450.125 77.25L429.947 96.5L419.875 86.875" stroke="#16A34A" stroke-width="6" stroke-linecap="round" stroke-linejoin="round"/>
<path d="M435 118.5C453.225 118.5 468 103.725 468 85.5C468 67.2746 453.225 52.5 435 52.5C416.775 52.5 402 67.2746 402 85.5C402 103.725 416.775 118.5 435 118.5Z" stroke="#16A34A" stroke-width="6" stroke-linecap="round" stroke-linejoin="round"/>
</g>
<rect x="526" y="21.5" width="127" height="127" rx="63.5" fill="#03301F" fill-opacity="0.6"/>
<g clip-path="url(#clip1_670_297)">
<path opacity="0.2" d="M593.678 101.828L587.078 119.737C586.883 120.264 586.531 120.717 586.07 121.038C585.609 121.359 585.061 121.53 584.5 121.53C583.939 121.53 583.391 121.359 582.93 121.038C582.469 120.717 582.117 120.264 581.922 119.737L575.322 101.828C575.183 101.45 574.963 101.107 574.678 100.822C574.393 100.537 574.05 100.317 573.672 100.178L555.763 93.5779C555.236 93.3826 554.782 93.0308 554.462 92.5699C554.141 92.1091 553.969 91.5612 553.969 90.9998C553.969 90.4384 554.141 89.8905 554.462 89.4296C554.782 88.9687 555.236 88.617 555.763 88.4217L573.672 81.8217C574.05 81.6824 574.393 81.4627 574.678 81.1778C574.963 80.893 575.183 80.5497 575.322 80.1717L581.922 62.2623C582.117 61.736 582.469 61.2821 582.93 60.9616C583.391 60.641 583.939 60.4692 584.5 60.4692C585.061 60.4692 585.609 60.641 586.07 60.9616C586.531 61.2821 586.883 61.736 587.078 62.2623L593.678 80.1717C593.817 80.5497 594.037 80.893 594.322 81.1778C594.607 81.4627 594.95 81.6824 595.328 81.8217L613.238 88.4217C613.764 88.617 614.218 88.9687 614.538 89.4296C614.859 89.8905 615.031 90.4384 615.031 90.9998C615.031 91.5612 614.859 92.1091 614.538 92.5699C614.218 93.0308 613.764 93.3826 613.238 93.5779L595.328 100.178C594.95 100.317 594.607 100.537 594.322 100.822C594.037 101.107 593.817 101.45 593.678 101.828Z" fill="#16A34A"/>
<path d="M593.678 101.828L587.078 119.737C586.883 120.264 586.531 120.717 586.07 121.038C585.609 121.359 585.061 121.53 584.5 121.53C583.939 121.53 583.391 121.359 582.93 121.038C582.469 120.717 582.117 120.264 581.922 119.737L575.322 101.828C575.183 101.45 574.963 101.107 574.678 100.822C574.393 100.537 574.05 100.317 573.672 100.178L555.763 93.5779C555.236 93.3826 554.782 93.0308 554.462 92.5699C554.141 92.1091 553.969 91.5612 553.969 90.9998C553.969 90.4384 554.141 89.8905 554.462 89.4296C554.782 88.9687 555.236 88.617 555.763 88.4217L573.672 81.8217C574.05 81.6824 574.393 81.4627 574.678 81.1778C574.963 80.893 575.183 80.5497 575.322 80.1717L581.922 62.2623C582.117 61.736 582.469 61.2821 582.93 60.9616C583.391 60.641 583.939 60.4692 584.5 60.4692C585.061 60.4692 585.609 60.641 586.07 60.9616C586.531 61.2821 586.883 61.736 587.078 62.2623L593.678 80.1717C593.817 80.5497 594.037 80.893 594.322 81.1778C594.607 81.4627 594.95 81.6824 595.328 81.8217L613.238 88.4217C613.764 88.617 614.218 88.9687 614.538 89.4296C614.859 89.8905 615.031 90.4384 615.031 90.9998C615.031 91.5612 614.859 92.1091 614.538 92.5699C614.218 93.0308 613.764 93.3826 613.238 93.5779L595.328 100.178C594.95 100.317 594.607 100.537 594.322 100.822C594.037 101.107 593.817 101.45 593.678 101.828Z" stroke="#16A34A" stroke-width="6" stroke-linecap="round" stroke-linejoin="round"/>
<path d="M606.5 47V63.5" stroke="#16A34A" stroke-width="6" stroke-linecap="round" stroke-linejoin="round"/>
<path d="M614.75 55.25H598.25" stroke="#16A34A" stroke-width="6" stroke-linecap="round" stroke-linejoin="round"/>
<path d="M623 66.25V77.25" stroke="#16A34A" stroke-width="6" stroke-linecap="round" stroke-linejoin="round"/>
<path d="M628.5 71.75H617.5" stroke="#16A34A" stroke-width="6" stroke-linecap="round" stroke-linejoin="round"/>
</g>
<rect x="681" y="21.5" width="127" height="127" rx="63.5" fill="#03301F" fill-opacity="0.6"/>
<g clip-path="url(#clip2_670_297)">
<path opacity="0.2" d="M745 91C754.113 91 761.5 83.6127 761.5 74.5C761.5 65.3873 754.113 58 745 58C735.887 58 728.5 65.3873 728.5 74.5C728.5 83.6127 735.887 91 745 91Z" fill="#16A34A"/>
<path d="M745 102C760.188 102 772.5 89.6878 772.5 74.5C772.5 59.3122 760.188 47 745 47C729.812 47 717.5 59.3122 717.5 74.5C717.5 89.6878 729.812 102 745 102Z" stroke="#16A34A" stroke-width="6" stroke-linecap="round" stroke-linejoin="round"/>
<path d="M745 91C754.113 91 761.5 83.6127 761.5 74.5C761.5 65.3873 754.113 58 745 58C735.887 58 728.5 65.3873 728.5 74.5C728.5 83.6127 735.887 91 745 91Z" stroke="#16A34A" stroke-width="6" stroke-linecap="round" stroke-linejoin="round"/>
<path d="M761.5 96.5V124L745 115.75L728.5 124V96.5" stroke="#16A34A" stroke-width="6" stroke-linecap="round" stroke-linejoin="round"/>
</g>
<defs>
<clipPath id="clip0_670_297">
<rect width="88" height="88" fill="white" transform="translate(391 41.5)"/>
</clipPath>
<clipPath id="clip1_670_297">
<rect width="88" height="88" fill="white" transform="translate(546 41.5)"/>
</clipPath>
<clipPath id="clip2_670_297">
<rect width="88" height="88" fill="white" transform="translate(701 41.5)"/>
</clipPath>
</defs>
</svg>
