<svg width="98" height="98" viewBox="0 0 98 98" fill="none" xmlns="http://www.w3.org/2000/svg">
<g filter="url(#filter0_b_599_1530)">
<rect width="98" height="98" rx="49" fill="black" fill-opacity="0.9"/>
<rect x="1" y="1" width="96" height="96" rx="48" stroke="#070707" stroke-opacity="0.8" stroke-width="2"/>
</g>
<path fill-rule="evenodd" clip-rule="evenodd" d="M72.3334 49.0001C72.3334 61.8859 61.8859 72.3334 49.0001 72.3334C36.1142 72.3334 25.6667 61.8859 25.6667 49.0001C25.6667 36.1142 36.1142 25.6667 49.0001 25.6667C61.8859 25.6667 72.3334 36.1142 72.3334 49.0001Z" fill="url(#paint0_linear_599_1530)"/>
<path fill-rule="evenodd" clip-rule="evenodd" d="M55.0597 52.4558C54.0855 53.5233 52.7182 54.0634 52.0777 54.0634C51.3369 54.0634 50.932 53.6096 50.8492 52.9271C50.8212 52.6658 50.8305 52.4021 50.8772 52.1419C51.1222 50.6136 51.6845 49.6639 51.6495 49.3746C51.639 49.2918 51.5924 49.2509 51.5317 49.2509C51.058 49.2509 49.3967 50.9659 49.1447 52.1011L48.9487 53.0099C48.8204 53.6504 48.1927 54.0623 47.761 54.0623C47.5545 54.0623 47.3982 53.9596 47.3714 53.7321C47.3632 53.6283 47.3714 53.5244 47.3959 53.4218L47.488 52.9434C46.592 53.6131 45.626 54.0658 45.1734 54.0658C44.555 54.0658 44.2085 53.7356 44.0849 53.2386C43.6765 53.7764 43.1364 54.0658 42.5612 54.0658C41.8262 54.0658 41.118 53.5793 40.7785 52.8594C40.2944 53.4031 39.7204 53.9351 39.0332 54.3749C38.0194 55.0166 36.8912 55.5323 35.5542 55.5323C34.3199 55.5323 33.2722 54.8719 32.6924 54.3353C31.8325 53.5303 31.3787 52.3309 31.2445 51.2366C30.8222 47.7868 32.9222 43.2636 36.176 41.2814C36.9227 40.8264 37.7592 40.6001 38.5187 40.6001C40.082 40.6001 41.2487 41.7178 41.412 43.0548C41.559 44.2588 41.0784 45.2994 39.7425 45.9726C39.0612 46.3179 38.7229 46.3016 38.6167 46.1371C38.5455 46.0274 38.5864 45.8408 38.7229 45.7276C39.9782 44.6788 40.0015 43.8178 39.8545 42.6044C39.7589 41.8239 39.2455 41.3234 38.6692 41.3234C36.2017 41.3234 32.662 46.8593 33.1544 50.8866C33.3469 52.4569 34.3094 54.2746 36.2834 54.2746C36.9414 54.2746 37.639 54.0891 38.2597 53.7788C39.3424 53.2258 39.9549 52.7871 40.5697 52.0708C40.418 50.2088 42.0164 47.8708 44.394 47.8708C45.423 47.8708 46.2747 48.2838 46.375 49.1098C46.501 50.1423 45.6214 50.3488 45.2924 50.3488C45.0042 50.3488 44.5422 50.2659 44.5095 49.9976C44.4745 49.7083 45.1325 49.8739 45.0509 49.2124C45.0007 48.7994 44.5714 48.6548 44.1607 48.6548C42.6802 48.6548 41.8624 50.7198 42.0199 52.0019C42.091 52.5806 42.3874 53.1581 42.9229 53.1581C43.3545 53.1581 43.9775 52.5386 44.2167 51.6298C44.3684 51.0103 44.954 50.5973 45.3869 50.5973C45.6132 50.5973 45.7695 50.6999 45.7975 50.9274C45.8069 51.0103 45.7999 51.1141 45.773 51.2378C45.724 51.5061 45.5175 52.3998 45.528 52.5841C45.535 52.7451 45.6284 52.9668 45.9084 52.9668C46.13 52.9668 46.9467 52.5258 47.7027 51.8491C47.9395 50.6229 48.2324 49.1063 48.2557 48.9861C48.3479 48.4891 48.5264 47.9769 49.5344 47.9769C49.7409 47.9769 49.8972 48.0796 49.9275 48.3281C49.9369 48.4098 49.9299 48.5148 49.903 48.6384L49.6207 49.9136C50.505 48.7353 51.8794 47.8696 52.703 47.8696C53.053 47.8696 53.3225 48.0539 53.368 48.4273C53.3937 48.6349 53.333 48.9849 53.1965 49.3769C52.9037 50.1819 52.5747 51.3918 52.3565 52.4336C52.3099 52.6553 52.3869 52.9889 52.7917 52.9889C53.1149 52.9889 54.152 52.5934 54.9909 51.4863C54.985 51.3299 54.9827 51.1713 54.9827 51.0103C54.9827 50.1423 55.0445 49.4399 55.209 48.9254C55.3735 48.3876 56.0525 47.8731 56.504 47.8731C56.7304 47.8731 56.8949 47.9968 56.8949 48.2441C56.8949 48.3269 56.8739 48.4308 56.833 48.5334C56.525 49.4423 56.3605 50.2904 56.3605 51.1363C56.3605 51.6111 56.4632 52.3753 56.567 52.7673C56.588 52.8501 56.6067 52.9329 56.6895 52.9329C56.833 52.9329 57.8002 51.9833 58.499 50.8259C57.8807 50.4328 57.5319 49.7106 57.5319 48.8216C57.5319 47.3353 58.4162 46.5699 59.2795 46.5699C59.9585 46.5699 60.5745 47.0658 60.5745 48.0563C60.5745 48.6769 60.3272 49.3793 59.9795 50.0606C59.9795 50.0606 60.123 50.0816 60.1849 50.0816C60.7192 50.0816 61.131 49.8331 61.3585 49.5648C61.4612 49.4481 61.5569 49.3571 61.6479 49.3034C62.3362 48.4716 63.3454 47.8708 64.5295 47.8708C65.5375 47.8708 66.4079 48.2639 66.5082 49.0899C66.6365 50.1423 65.737 50.3499 65.4279 50.3499C65.1199 50.3499 64.6567 50.2671 64.624 49.9988C64.5914 49.7304 65.2669 49.8751 65.1887 49.2358C65.1385 48.8228 64.7069 48.6571 64.295 48.6571C62.916 48.6571 61.9687 50.4958 62.1507 51.9821C62.223 52.5818 62.4995 53.1604 63.035 53.1604C63.4667 53.1604 64.1119 52.5398 64.3499 51.6321C64.5027 51.0324 65.0872 50.5996 65.5189 50.5996C65.7242 50.5996 65.9015 50.7023 65.9319 50.9508C65.947 51.0744 65.8969 51.3439 65.667 52.3134C65.5725 52.7264 65.5539 53.0776 65.59 53.3669C65.6635 53.9666 65.9377 54.3586 66.192 54.5861C66.2842 54.6678 66.339 54.7704 66.346 54.8346C66.3659 55.0003 66.2399 55.1449 66.0345 55.1449C65.9727 55.1449 65.891 55.1449 65.8234 55.1041C64.764 54.6701 64.3242 53.9479 64.2005 53.2654C63.7922 53.7811 63.2509 54.0704 62.6955 54.0704C61.7494 54.0704 60.8254 53.2433 60.6947 52.1699C60.641 51.7289 60.6935 51.2541 60.8382 50.7886C60.4544 51.0254 60.0414 51.1573 59.6704 51.1573C59.5467 51.1573 59.444 51.1573 59.3215 51.1363C58.3964 52.4779 57.4292 53.4078 56.6884 53.8219C56.3804 53.9876 56.0934 54.0704 55.8869 54.0704C55.7212 54.0704 55.5369 54.0296 55.4552 53.8849C55.2615 53.5618 55.1344 53.0531 55.0597 52.4558ZM58.4115 48.0563C58.4115 48.6349 58.6985 49.2346 59.0695 49.6266C59.2142 49.2334 59.2959 48.8414 59.2959 48.4483C59.2959 47.7039 59.0077 47.3738 58.7814 47.3738C58.5142 47.3738 58.4115 47.7471 58.4115 48.0563Z" fill="white"/>
<defs>
<filter id="filter0_b_599_1530" x="-74" y="-74" width="246" height="246" filterUnits="userSpaceOnUse" color-interpolation-filters="sRGB">
<feFlood flood-opacity="0" result="BackgroundImageFix"/>
<feGaussianBlur in="BackgroundImageFix" stdDeviation="37"/>
<feComposite in2="SourceAlpha" operator="in" result="effect1_backgroundBlur_599_1530"/>
<feBlend mode="normal" in="SourceGraphic" in2="effect1_backgroundBlur_599_1530" result="shape"/>
</filter>
<linearGradient id="paint0_linear_599_1530" x1="65.6402" y1="67.3517" x2="32.8417" y2="31.1792" gradientUnits="userSpaceOnUse">
<stop stop-color="#823AF3"/>
<stop offset="0.36" stop-color="#4B66E1"/>
<stop offset="0.906" stop-color="#01F1C4"/>
</linearGradient>
</defs>
</svg>
