<svg width="98" height="98" viewBox="0 0 98 98" fill="none" xmlns="http://www.w3.org/2000/svg">
<g filter="url(#filter0_b_599_1589)">
<rect width="98" height="98" rx="49" fill="black" fill-opacity="0.9"/>
<rect x="1" y="1" width="96" height="96" rx="48" stroke="#070707" stroke-opacity="0.8" stroke-width="2"/>
</g>
<g clip-path="url(#clip0_599_1589)">
<path d="M21.0194 34.762C21.2244 32.9602 22.0645 31.2904 23.3892 30.052C24.7138 28.8135 26.4362 28.0874 28.2477 28.0039H60.0911C61.2327 28.0981 62.3392 28.4446 63.3305 29.0186C64.3218 29.5925 65.1732 30.3795 65.8233 31.3227C66.4089 32.1819 66.8221 33.1467 67.0396 34.1635L76.3976 29.5234C76.457 29.4937 76.5226 29.4786 76.589 29.4795C76.6553 29.4803 76.7205 29.497 76.7791 29.5282C76.8377 29.5594 76.888 29.6042 76.9257 29.6588C76.9635 29.7134 76.9876 29.7762 76.9961 29.8421C76.9961 31.5947 76.9961 33.3396 76.9961 35.104C76.9998 35.2798 76.9502 35.4526 76.8538 35.5997C76.7573 35.7467 76.6186 35.8611 76.4559 35.9278C67.8467 40.1975 59.2362 44.4723 50.6244 48.7523L76.3976 61.5029C76.5623 61.56 76.7067 61.664 76.813 61.802C76.9193 61.9401 76.983 62.1063 76.9961 62.2801C76.9961 64.0367 76.9961 65.7777 76.9961 67.5498C76.9966 67.6299 76.9748 67.7086 76.9332 67.777C76.8915 67.8454 76.8316 67.9009 76.7602 67.9372C76.6888 67.9735 76.6087 67.9893 76.5289 67.9826C76.449 67.9759 76.3726 67.9472 76.3082 67.8995C73.2381 66.3451 70.1253 64.88 67.0785 63.2944C66.8738 64.0308 66.6005 64.7464 66.2624 65.4318C65.7462 66.3817 65.0376 67.2134 64.1817 67.8738C63.3259 68.5343 62.3417 69.0089 61.292 69.2675C60.5896 69.415 59.8716 69.4738 59.1546 69.4424H29.4757C28.8073 69.4424 28.135 69.4424 27.4705 69.3918C25.795 69.141 24.251 68.3387 23.0827 67.1119C21.9143 65.8851 21.1883 64.3039 21.0194 62.6182C21.0194 60.9199 21.0194 59.2178 21.0194 57.5195C21.0476 57.3069 21.1356 57.1068 21.2732 56.9423C21.4108 56.7779 21.5923 56.6559 21.7966 56.5907C27.0896 53.9753 32.371 51.3366 37.6717 48.7328C32.3321 46.0747 26.9886 43.4243 21.6412 40.7817C21.4594 40.7015 21.3047 40.5704 21.1957 40.4042C21.0868 40.238 21.0282 40.0438 21.0272 39.8451C21.0194 38.1546 20.9922 36.4564 21.0194 34.762ZM26.9186 34.797C26.6 35.4382 26.7476 36.1804 26.7204 36.8722C32.5497 39.7519 38.3363 42.6471 44.1539 45.5073C49.9029 42.6574 55.6544 39.8076 61.4086 36.9577C61.4086 36.4408 61.4319 35.924 61.4086 35.4032C61.3409 34.9377 61.1066 34.5126 60.7493 34.2068C60.392 33.9009 59.9358 33.735 59.4655 33.7399H28.6946C28.3279 33.7276 27.9654 33.8207 27.65 34.008C27.3346 34.1953 27.0794 34.4691 26.9147 34.797H26.9186ZM26.7204 60.5857C26.7476 61.2852 26.5961 62.0392 26.9342 62.6882C27.1039 63.0073 27.3594 63.2728 27.6717 63.4547C27.9841 63.6366 28.341 63.7278 28.7024 63.718H59.4927C59.8338 63.7208 60.1696 63.6326 60.4653 63.4625C60.7611 63.2924 61.0062 63.0466 61.1754 62.7503C61.564 62.0702 61.3852 61.2542 61.4241 60.508C55.6609 57.6633 49.9054 54.772 44.1306 51.9584C38.3091 54.8342 32.5044 57.7099 26.7165 60.5857H26.7204Z" fill="white"/>
</g>
<defs>
<filter id="filter0_b_599_1589" x="-74" y="-74" width="246" height="246" filterUnits="userSpaceOnUse" color-interpolation-filters="sRGB">
<feFlood flood-opacity="0" result="BackgroundImageFix"/>
<feGaussianBlur in="BackgroundImageFix" stdDeviation="37"/>
<feComposite in2="SourceAlpha" operator="in" result="effect1_backgroundBlur_599_1589"/>
<feBlend mode="normal" in="SourceGraphic" in2="effect1_backgroundBlur_599_1589" result="shape"/>
</filter>
<clipPath id="clip0_599_1589">
<rect width="56" height="41.4307" fill="white" transform="translate(21 28)"/>
</clipPath>
</defs>
</svg>
