<svg width="98" height="98" viewBox="0 0 98 98" fill="none" xmlns="http://www.w3.org/2000/svg">
<g filter="url(#filter0_b_599_1580)">
<rect width="98" height="98" rx="49" fill="black" fill-opacity="0.9"/>
<rect x="1" y="1" width="96" height="96" rx="48" stroke="#070707" stroke-opacity="0.8" stroke-width="2"/>
</g>
<path d="M56 70H42C34.2685 70 28 63.7315 28 56V42C28 34.2685 34.2685 28 42 28H70V56C70 63.7315 63.7315 70 56 70Z" fill="url(#paint0_linear_599_1580)"/>
<path opacity="0.05" d="M70 51.3333H28V58.3333H70V51.3333Z" fill="black"/>
<path opacity="0.07" d="M70 52.5H28V59.5H70V52.5Z" fill="black"/>
<path d="M56 70.0001H42C34.2685 70.0001 28 63.7316 28 56.0001V53.6667H70V56.0001C70 63.7316 63.7315 70.0001 56 70.0001Z" fill="url(#paint1_linear_599_1580)"/>
<path opacity="0.05" d="M61.2079 56.616L60.8031 54.3235L41.9416 35.462C41.0596 34.58 39.5219 34.58 38.6423 35.462L34.5169 39.5862C34.0759 40.0272 33.8333 40.614 33.8333 41.2382C33.8333 41.8612 34.0759 42.4469 34.5169 42.8855L53.3831 61.7529L62.3769 63.2567L61.2079 56.616Z" fill="black"/>
<path opacity="0.07" d="M60.2607 54.6071L41.5287 35.8739C40.8672 35.2136 39.7134 35.2136 39.0542 35.8739L34.9289 39.9981C34.5976 40.3282 34.4167 40.7692 34.4167 41.2371C34.4167 41.7049 34.5987 42.1436 34.9289 42.4737L53.6632 61.2092L56.9007 61.7517L61.6584 62.5462L60.2607 54.6071Z" fill="black"/>
<path d="M60.4474 59.0276L60.942 61.8334L58.1152 61.3609L60.4474 59.0276ZM35.3419 42.0607L53.9444 60.6632L56.7012 61.1241L60.2012 57.6241L59.7194 54.8882L41.1169 36.2857C40.6607 35.8296 39.9222 35.8296 39.4672 36.2857L35.3419 40.4111C34.8857 40.8661 34.8857 41.6057 35.3419 42.0607Z" fill="url(#paint2_linear_599_1580)"/>
<defs>
<filter id="filter0_b_599_1580" x="-74" y="-74" width="246" height="246" filterUnits="userSpaceOnUse" color-interpolation-filters="sRGB">
<feFlood flood-opacity="0" result="BackgroundImageFix"/>
<feGaussianBlur in="BackgroundImageFix" stdDeviation="37"/>
<feComposite in2="SourceAlpha" operator="in" result="effect1_backgroundBlur_599_1580"/>
<feBlend mode="normal" in="SourceGraphic" in2="effect1_backgroundBlur_599_1580" result="shape"/>
</filter>
<linearGradient id="paint0_linear_599_1580" x1="52.5793" y1="29.463" x2="47.9127" y2="54.9348" gradientUnits="userSpaceOnUse">
<stop stop-color="#80E81F"/>
<stop offset="0.339" stop-color="#67D326"/>
<stop offset="1" stop-color="#088242"/>
</linearGradient>
<linearGradient id="paint1_linear_599_1580" x1="48.4447" y1="69.2231" x2="49.028" y2="54.2512" gradientUnits="userSpaceOnUse">
<stop stop-color="#80E81F"/>
<stop offset="0.258" stop-color="#71DF21"/>
<stop offset="1" stop-color="#05A333"/>
</linearGradient>
<linearGradient id="paint2_linear_599_1580" x1="52.0625" y1="47.2011" x2="46.2292" y2="53.0344" gradientUnits="userSpaceOnUse">
<stop offset="0.305" stop-color="#F5FCFF"/>
<stop offset="0.704" stop-color="#D3E6D3"/>
<stop offset="0.865" stop-color="#A4CBA5"/>
</linearGradient>
</defs>
</svg>
