<svg width="98" height="98" viewBox="0 0 98 98" fill="none" xmlns="http://www.w3.org/2000/svg">
<g filter="url(#filter0_b_599_1545)">
<rect width="98" height="98" rx="49" fill="black" fill-opacity="0.9"/>
<rect x="1" y="1" width="96" height="96" rx="48" stroke="#070707" stroke-opacity="0.8" stroke-width="2"/>
</g>
<path d="M40.6376 74.3298C41.4624 73.9749 42.0401 73.1547 42.0401 72.2001V65.9361C42.0401 65.7075 42.0586 65.4697 42.0876 65.2285C42.0714 65.2331 42.0563 65.2366 42.0401 65.2401C42.0401 65.2401 38.5601 65.2401 37.8641 65.2401C36.1241 65.2401 34.6161 64.5441 33.9201 63.1521C33.1081 61.6441 32.7601 59.0921 30.6721 57.7001C30.3241 57.4681 30.5561 57.1201 31.2521 57.1201C31.9481 57.2361 33.4561 58.1641 34.3841 59.4401C35.4281 60.7161 36.4721 61.7601 38.3281 61.7601C41.213 61.7601 42.7593 61.6151 43.6896 61.1163C44.773 59.505 46.2729 58.2801 47.8401 58.2801V58.2511C41.2652 58.0399 37.0648 55.8545 35.1091 52.4801C30.8577 52.5288 27.1561 52.9499 25.0437 53.3002C24.9765 52.9209 24.9185 52.5392 24.8686 52.1553C26.9531 51.8119 30.4865 51.4047 34.5488 51.327C34.4189 51.0069 34.3063 50.6786 34.2112 50.3422C30.1385 50.1357 26.6237 50.2969 24.7143 50.4547C24.6911 50.0696 24.6598 49.6856 24.6551 49.2959C26.568 49.1393 29.9877 48.9827 33.956 49.1671C33.8644 48.5871 33.8052 47.9943 33.8052 47.3772C33.8052 45.4052 34.5012 43.3172 35.7772 41.5772C35.1972 39.6052 34.3852 35.4292 36.0092 33.9212C39.1412 33.9212 41.3452 35.4292 42.3892 36.3572C44.3601 35.5441 46.5641 35.0801 49.0001 35.0801C51.4361 35.0801 53.6401 35.5441 55.4961 36.3561C56.5401 35.4281 58.7441 33.9201 61.8761 33.9201C63.6161 35.5441 62.6881 39.7201 62.1081 41.5761C63.3841 43.3161 64.0801 45.2881 63.9641 47.3761C63.9641 47.9375 63.9119 48.4792 63.8365 49.0105C67.8953 48.811 71.4078 48.9711 73.3531 49.1288C73.3508 49.5197 73.3148 49.9014 73.2939 50.2877C71.3556 50.1276 67.7549 49.9629 63.5975 50.1844C63.4943 50.5742 63.369 50.9535 63.2205 51.3212C67.3339 51.3746 70.9519 51.7725 73.1362 52.1205C73.0863 52.5056 73.0283 52.8872 72.961 53.2654C70.7431 52.9104 66.9627 52.4951 62.6614 52.4743C60.73 55.8127 56.6062 57.9901 50.1601 58.2441V58.2801C53.1761 58.2801 55.9601 62.8041 55.9601 65.9361V72.2001C55.9601 73.1547 56.5377 73.9749 57.3625 74.3298C67.9893 70.8127 75.6801 60.7903 75.6801 49.0001C75.6801 34.2889 63.7123 22.3201 49.0001 22.3201C34.2878 22.3201 22.3201 34.2889 22.3201 49.0001C22.3201 60.7903 30.0109 70.8127 40.6376 74.3298Z" fill="white"/>
<defs>
<filter id="filter0_b_599_1545" x="-74" y="-74" width="246" height="246" filterUnits="userSpaceOnUse" color-interpolation-filters="sRGB">
<feFlood flood-opacity="0" result="BackgroundImageFix"/>
<feGaussianBlur in="BackgroundImageFix" stdDeviation="37"/>
<feComposite in2="SourceAlpha" operator="in" result="effect1_backgroundBlur_599_1545"/>
<feBlend mode="normal" in="SourceGraphic" in2="effect1_backgroundBlur_599_1545" result="shape"/>
</filter>
</defs>
</svg>
