<svg width="54" height="54" viewBox="0 0 54 54" fill="none" xmlns="http://www.w3.org/2000/svg">
<rect width="54" height="54" rx="27" fill="#ECBD0B"/>
<path d="M8 19V35H12.0075V28.4957H14.3887V35H18.3962V19H14.3887V25.3233H12.0075V19H8ZM21.3302 19.0224V35H27.6482C28.3556 34.9543 28.8269 34.9095 29.1337 34.8414C29.6758 34.7052 30.2656 34.4104 30.69 34.0483C31.5619 33.3 31.8687 32.2802 31.9633 31.219C31.9633 30.9698 31.9872 30.7207 31.9872 30.4707V23.3922C31.9404 22.0552 31.8219 21.4922 31.492 20.8802C30.5485 19.2259 28.8039 19.0897 27.0831 19.0216H21.331L21.3302 19.0224ZM25.3146 21.6741C26.0459 21.6966 26.6817 21.6966 26.9416 21.7647C27.955 21.9871 28.0028 22.8483 28.0028 23.1431C28.0266 23.2793 28.0266 23.3922 28.0266 23.5285V30.6069C28.0266 30.8112 28.0735 31.7854 27.2016 32.1216C26.824 32.2802 26.259 32.2802 25.3155 32.2578V21.6741H25.3146ZM35.6038 19V35H39.6113V28.4957H41.9926V35H46V19H41.9926V25.3233H39.6113V19H35.6038Z" fill="black"/>
</svg>
