<svg width="98" height="98" viewBox="0 0 98 98" fill="none" xmlns="http://www.w3.org/2000/svg">
<g filter="url(#filter0_b_599_1539)">
<rect width="98" height="98" rx="49" fill="black" fill-opacity="0.9"/>
<rect x="1" y="1" width="96" height="96" rx="48" stroke="#070707" stroke-opacity="0.8" stroke-width="2"/>
</g>
<path d="M28 70V28H70V70H28Z" fill="#F7DF1E"/>
<path d="M55.4609 59.4382C56.2683 60.7496 57.1456 62.0061 59.0041 62.0061C60.5651 62.0061 61.3841 61.2302 61.3841 60.1569C61.3841 58.8724 60.5371 58.4162 58.8198 57.6684L57.8783 57.2671C55.1611 56.1144 53.3539 54.6701 53.3539 51.6192C53.3539 48.8076 55.5064 46.6679 58.8699 46.6679C61.2651 46.6679 62.9859 47.4974 64.2273 49.6697L61.2943 51.5446C60.6491 50.3919 59.9514 49.9381 58.8699 49.9381C57.7663 49.9381 57.0674 50.6346 57.0674 51.5446C57.0674 52.6692 57.7674 53.1242 59.3833 53.8207L60.3248 54.2221C63.5273 55.5859 65.3333 56.9789 65.3333 60.1102C65.3333 63.4842 62.6686 65.3334 59.0916 65.3334C55.5928 65.3334 53.6059 63.5776 52.4999 61.4041L55.4609 59.4382ZM41.9439 59.5339C42.5343 60.5909 43.4314 61.4041 44.7218 61.4041C45.9561 61.4041 46.6666 60.9164 46.6666 59.0206V46.6667H50.5551V59.6179C50.5551 63.5461 48.2766 65.3334 44.9493 65.3334C41.9428 65.3334 39.7728 63.2964 38.8884 61.4041L41.9439 59.5339Z" fill="#000001"/>
<defs>
<filter id="filter0_b_599_1539" x="-74" y="-74" width="246" height="246" filterUnits="userSpaceOnUse" color-interpolation-filters="sRGB">
<feFlood flood-opacity="0" result="BackgroundImageFix"/>
<feGaussianBlur in="BackgroundImageFix" stdDeviation="37"/>
<feComposite in2="SourceAlpha" operator="in" result="effect1_backgroundBlur_599_1539"/>
<feBlend mode="normal" in="SourceGraphic" in2="effect1_backgroundBlur_599_1539" result="shape"/>
</filter>
</defs>
</svg>
