<svg width="300" height="28" viewBox="0 0 300 28" fill="none" xmlns="http://www.w3.org/2000/svg">
<path d="M16.1278 7.71995V22H12.2078V19.872C11.7971 20.656 11.1718 21.272 10.3318 21.72C9.4918 22.168 8.55847 22.392 7.5318 22.392C6.2998 22.392 5.18913 22.0747 4.1998 21.44C3.22913 20.8053 2.4638 19.9187 1.9038 18.78C1.36247 17.6227 1.0918 16.316 1.0918 14.86C1.0918 13.404 1.36247 12.1067 1.9038 10.968C2.4638 9.81062 3.22913 8.91462 4.1998 8.27995C5.18913 7.64528 6.2998 7.32795 7.5318 7.32795C8.55847 7.32795 9.4918 7.55195 10.3318 7.99995C11.1718 8.44795 11.7971 9.06395 12.2078 9.84795V7.71995H16.1278ZM8.7078 18.808C9.80913 18.808 10.6771 18.4533 11.3118 17.744C11.9651 17.016 12.2918 16.0547 12.2918 14.86C12.2918 13.6653 11.9651 12.7133 11.3118 12.004C10.6771 11.276 9.80913 10.912 8.7078 10.912C7.60647 10.912 6.72913 11.276 6.0758 12.004C5.44113 12.7133 5.1238 13.6653 5.1238 14.86C5.1238 16.0547 5.44113 17.016 6.0758 17.744C6.72913 18.4533 7.60647 18.808 8.7078 18.808ZM21.1273 11.192H18.4953V7.71995H21.1273V6.01195C21.1273 2.83862 22.882 1.25195 26.3913 1.25195C27.1567 1.25195 27.9593 1.33595 28.7993 1.50395V4.86395C28.202 4.75195 27.67 4.69595 27.2033 4.69595C26.4567 4.69595 25.9153 4.83595 25.5793 5.11595C25.262 5.39595 25.1033 5.83462 25.1033 6.43195V7.71995H28.7993V11.192H25.1033V22H21.1273V11.192ZM36.0857 22.224C34.9283 22.224 33.9297 21.9907 33.0897 21.524C32.2497 21.0573 31.6057 20.3947 31.1577 19.536C30.7097 18.6587 30.4857 17.632 30.4857 16.456C30.4857 15.5413 30.5883 14.6267 30.7937 13.712C30.999 12.7787 31.2977 11.9013 31.6897 11.08C32.1003 10.2587 32.6043 9.53062 33.2017 8.89595C33.799 8.24262 34.499 7.72928 35.3017 7.35595C36.1043 6.98262 37.0003 6.79595 37.9897 6.79595C39.1657 6.79595 40.1643 7.02928 40.9857 7.49595C41.8257 7.96262 42.4697 8.63462 42.9177 9.51195C43.3657 10.3707 43.5897 11.3973 43.5897 12.592C43.5897 13.5067 43.487 14.4213 43.2817 15.336C43.0763 16.2507 42.7683 17.128 42.3577 17.968C41.9657 18.7893 41.471 19.5173 40.8737 20.152C40.2763 20.7867 39.5763 21.2907 38.7737 21.664C37.971 22.0373 37.075 22.224 36.0857 22.224ZM36.2257 20.18C36.767 20.18 37.271 20.068 37.7377 19.844C38.223 19.62 38.671 19.2933 39.0817 18.864C39.4923 18.416 39.8377 17.8747 40.1177 17.24C40.4163 16.5867 40.6497 15.8493 40.8177 15.028C40.9857 14.2067 41.0697 13.3013 41.0697 12.312C41.0697 11.752 40.967 11.2107 40.7617 10.688C40.575 10.1467 40.2577 9.70795 39.8097 9.37195C39.3617 9.01728 38.7643 8.83995 38.0177 8.83995C37.4017 8.83995 36.8323 8.97062 36.3097 9.23195C35.787 9.49328 35.3203 9.86662 34.9097 10.352C34.499 10.8187 34.1443 11.3787 33.8457 12.032C33.5657 12.6667 33.351 13.3667 33.2017 14.132C33.0523 14.8973 32.9777 15.7 32.9777 16.54C32.9777 17.6973 33.2577 18.5933 33.8177 19.228C34.3963 19.8627 35.199 20.18 36.2257 20.18ZM35.1617 26.9C34.807 26.9 34.499 26.788 34.2377 26.564C33.9763 26.34 33.8457 26.0133 33.8457 25.584C33.8457 25.0987 33.9857 24.6787 34.2657 24.324C34.5643 23.9693 34.975 23.792 35.4977 23.792C35.7963 23.792 36.0297 23.848 36.1977 23.96C36.3843 24.072 36.5243 24.2213 36.6177 24.408C36.711 24.5947 36.7577 24.8093 36.7577 25.052C36.7577 25.6307 36.5897 26.0787 36.2537 26.396C35.9363 26.732 35.5723 26.9 35.1617 26.9ZM46.683 1.50395H50.659V22H46.683V1.50395ZM69.372 7.80395L67.356 22H64.724L65.06 19.564C64.5187 20.4413 63.7627 21.132 62.792 21.636C61.84 22.14 60.7947 22.392 59.656 22.392C58.4987 22.392 57.4813 22.1307 56.604 21.608C55.7267 21.0667 55.036 20.32 54.532 19.368C54.0467 18.3973 53.804 17.2773 53.804 16.008C53.804 14.776 54.0373 13.5813 54.504 12.424C54.9707 11.2667 55.6147 10.2867 56.436 9.48395C57.0893 8.83062 57.8547 8.32662 58.732 7.97195C59.6093 7.59862 60.5333 7.41195 61.504 7.41195C62.6987 7.41195 63.7347 7.68262 64.612 8.22395C65.508 8.76528 66.096 9.49328 66.376 10.408L66.74 7.80395H69.372ZM63.996 18.528C64.5933 17.9867 65.06 17.3053 65.396 16.484C65.732 15.644 65.9 14.7947 65.9 13.936C65.9 12.6853 65.5453 11.696 64.836 10.968C64.1453 10.2213 63.1933 9.84795 61.98 9.84795C61.2707 9.84795 60.608 9.97862 59.992 10.24C59.376 10.4827 58.8347 10.8373 58.368 11.304C57.7707 11.9013 57.3133 12.6107 56.996 13.432C56.6973 14.2533 56.548 15.0747 56.548 15.896C56.548 17.128 56.884 18.1173 57.556 18.864C58.2467 19.592 59.1893 19.956 60.384 19.956C61.0747 19.956 61.728 19.8347 62.344 19.592C62.9787 19.3307 63.5293 18.976 63.996 18.528ZM64.836 1.25195H68.112L63.884 5.45195H61.084L64.836 1.25195ZM81.1116 7.32795C82.3436 7.32795 83.4543 7.64528 84.4436 8.27995C85.433 8.91462 86.1983 9.81062 86.7396 10.968C87.2996 12.1067 87.5796 13.404 87.5796 14.86C87.5796 16.316 87.2996 17.6227 86.7396 18.78C86.1983 19.9187 85.433 20.8053 84.4436 21.44C83.4543 22.0747 82.3436 22.392 81.1116 22.392C80.085 22.392 79.1516 22.168 78.3116 21.72C77.4716 21.272 76.8463 20.6467 76.4356 19.844V22H72.5436V1.50395H76.5196V9.70795C76.949 8.96128 77.565 8.38262 78.3676 7.97195C79.189 7.54262 80.1036 7.32795 81.1116 7.32795ZM79.9356 18.808C81.037 18.808 81.905 18.4533 82.5396 17.744C83.193 17.016 83.5196 16.0547 83.5196 14.86C83.5196 13.6653 83.193 12.7133 82.5396 12.004C81.905 11.276 81.037 10.912 79.9356 10.912C78.8343 10.912 77.9663 11.276 77.3316 12.004C76.697 12.7133 76.3796 13.6653 76.3796 14.86C76.3796 16.0547 76.697 17.016 77.3316 17.744C77.9663 18.4533 78.8343 18.808 79.9356 18.808ZM94.6512 1.25195H97.8152L94.1752 5.45195H91.5432L94.6512 1.25195ZM91.9632 7.80395H94.5952L92.5792 22H89.9472L91.9632 7.80395Z" fill="#FDFDF8"/>
<g clip-path="url(#clip0_7821_29794)">
<path d="M123.084 10.7419L122.258 9.9165L119 13.1744L115.742 9.9165L114.917 10.7419L118.175 13.9998L114.917 17.2578L115.742 18.0832L119 14.8253L122.258 18.0832L123.084 17.2578L119.826 13.9998L123.084 10.7419Z" fill="white"/>
</g>
<g clip-path="url(#clip1_7821_29794)">
<path d="M164.683 21.0436V25.9885H157.471V14.0292L145.099 26.5L140 21.3589L152.47 8.79001H140.41V1.52102H159.679L159.7 1.5L164.798 6.64108L164.683 6.75787L162.667 8.79001L157.596 13.9007L164.683 21.0459V21.0436Z" fill="white"/>
<path d="M176.58 21.6882H174.69V7.63137H169.332V5.86084H181.941V7.63137H176.583V21.6905L176.58 21.6882Z" fill="#FDFDFD"/>
<path d="M192.548 16.5333H183.521C183.565 19.0443 185.189 20.3454 187.211 20.3454C188.724 20.3454 189.991 19.6049 190.547 18.1263H192.414C191.77 20.3921 189.836 21.894 187.167 21.894C183.854 21.894 181.651 19.5395 181.651 15.9961C181.651 12.4527 183.852 10.1216 187.144 10.1216C190.436 10.1216 192.548 12.3639 192.548 15.7275V16.5357V16.5333ZM183.542 15.1646H190.679C190.545 12.8101 189.034 11.6212 187.144 11.6212C185.254 11.6212 183.764 12.7867 183.542 15.1646Z" fill="#FDFDFD"/>
<path d="M200.131 11.7122C198.041 11.7122 196.484 13.1907 196.484 15.9937C196.484 18.7966 198.064 20.2752 200.11 20.2752C201.69 20.2752 202.91 19.3549 203.469 17.7198H205.403C204.78 20.2542 202.801 21.8915 200.11 21.8915C196.818 21.8915 194.617 19.5371 194.617 15.9937C194.617 12.4503 196.818 10.1191 200.11 10.1191C202.755 10.1191 204.736 11.5977 205.38 14.132H203.378C202.845 12.6068 201.643 11.7098 200.133 11.7098L200.131 11.7122Z" fill="#FDFDFD"/>
<path d="M217.766 15.008V21.6908H215.943V15.3234C215.943 12.8801 214.787 11.8244 212.985 11.8477C210.805 11.8477 209.626 13.394 209.626 15.5243V21.6908H207.803V5.18604H209.626V12.0252C210.316 10.8153 211.739 10.1192 213.362 10.1192C215.519 10.1192 217.766 11.2848 217.766 15.008Z" fill="#FDFDFD"/>
<path d="M224.862 20.4553L228.265 10.3203L230.199 10.3437L225.485 23.5269C224.684 25.7249 223.46 26.1733 221.816 26.1733H219.592V24.5149H221.839C222.995 24.5149 223.706 23.8866 223.706 22.6089C223.706 22.2959 223.639 21.9806 223.507 21.6232L219.193 10.346H221.172L224.862 20.4577V20.4553Z" fill="#FDFDFD"/>
<path d="M238.137 21.6882H236.247V7.63137H230.889V5.86084H243.498V7.63137H238.139V21.6905L238.137 21.6882Z" fill="#FDFDFD"/>
<path d="M254.103 16.5333H245.075C245.12 19.0443 246.743 20.3454 248.766 20.3454C250.278 20.3454 251.546 19.6049 252.102 18.1263H253.969C253.325 20.3921 251.39 21.894 248.722 21.894C245.409 21.894 243.206 19.5395 243.206 15.9961C243.206 12.4527 245.407 10.1216 248.699 10.1216C251.99 10.1216 254.103 12.3639 254.103 15.7275V16.5357V16.5333ZM245.096 15.1646H252.234C252.099 12.8101 250.589 11.6212 248.699 11.6212C246.808 11.6212 245.319 12.7867 245.096 15.1646Z" fill="#FDFDFD"/>
<path d="M267.135 20.2541V21.6883H266.023C265.134 21.6883 264.311 21.3286 264.2 20.142C263.533 21.1955 262.064 21.9126 260.264 21.9126C257.751 21.9126 256.194 20.5905 256.194 18.4369C256.194 16.6197 257.306 15.1645 260.508 15.1645H264.066V14.5361C264.066 12.4946 262.887 11.6444 261.219 11.6444C259.551 11.6444 258.439 12.4736 258.351 13.819H256.595C256.729 11.4202 258.664 10.1191 261.286 10.1191C264.087 10.1191 265.912 11.6654 265.912 14.5128V19.3782C265.912 20.0953 266.091 20.2518 266.735 20.2518H267.135V20.2541ZM264.066 16.5332H260.686C258.752 16.5332 258.085 17.3414 258.085 18.4159C258.085 19.7379 259.129 20.3896 260.575 20.3896C262.421 20.3896 264.066 19.3572 264.066 17.0494V16.5332Z" fill="#FDFDFD"/>
<path d="M285.615 14.5361V21.6883H283.768V14.8491C283.768 12.6979 282.744 11.8219 281.167 11.8219C279.589 11.8219 278.41 12.831 278.343 15.029V21.6883H276.541V15.0056C276.541 12.8987 275.584 11.8219 273.96 11.8219C272.181 11.8219 271.113 12.9875 271.113 14.9169V21.6883H269.29V10.3434H270.891L271.157 11.6654C271.757 10.612 272.959 10.1191 274.247 10.1191C275.938 10.1191 277.273 10.8596 277.917 12.3171C278.607 10.7918 280.097 10.1191 281.519 10.1191C283.988 10.1191 285.61 11.7776 285.61 14.5361H285.615Z" fill="#FDFDFD"/>
<path d="M289.775 18.3482C289.819 19.6937 290.975 20.4785 292.71 20.4785C294.445 20.4785 295.511 19.7824 295.511 18.5958C295.511 17.5868 294.978 17.0495 293.664 16.8697L291.329 16.489C289.196 16.1292 288.216 15.0992 288.216 13.394C288.216 11.3993 290.106 10.1216 292.573 10.1216C295.219 10.1216 297.132 11.3993 297.153 13.665H295.351C295.307 12.2962 294.172 11.5581 292.594 11.5581C291.017 11.5581 290.016 12.2308 290.016 13.352C290.016 14.3167 290.639 14.7862 292.041 14.9894L294.332 15.3701C296.377 15.7065 297.357 16.6922 297.357 18.4417C297.357 20.684 295.332 21.9173 292.754 21.9173C289.796 21.9173 287.973 20.5275 287.929 18.3529H289.775V18.3482Z" fill="#FDFDFD"/>
<path d="M298.888 10.0048C298.277 10.0048 297.776 9.49564 297.776 8.88367C297.776 8.27169 298.277 7.75781 298.888 7.75781C299.5 7.75781 300 8.25066 300 8.88367C300 9.51667 299.504 10.0048 298.888 10.0048ZM298.888 7.9984C298.4 7.9984 298.022 8.39548 298.022 8.88367C298.022 9.37185 298.4 9.75725 298.888 9.75725C299.377 9.75725 299.762 9.38119 299.762 8.88367C299.762 8.38614 299.377 7.9984 298.888 7.9984ZM298.916 9.05885L299.111 9.46294H299.365L299.143 9.02615C299.271 8.97476 299.365 8.8533 299.365 8.68512C299.365 8.46089 299.194 8.31607 298.976 8.31607H298.476V9.46528H298.698V9.06118H298.916V9.05885ZM299.138 8.68979C299.138 8.80658 299.067 8.886 298.932 8.886H298.698V8.50994H298.932C299.06 8.50994 299.138 8.57768 299.138 8.68979Z" fill="#FDFDFD"/>
</g>
<defs>
<clipPath id="clip0_7821_29794">
<rect width="14" height="14" fill="white" transform="translate(112 7)"/>
</clipPath>
<clipPath id="clip1_7821_29794">
<rect width="160" height="25" fill="white" transform="translate(140 1.5)"/>
</clipPath>
</defs>
</svg>
