<svg width="98" height="28" viewBox="0 0 98 28" fill="none" xmlns="http://www.w3.org/2000/svg">
<path d="M16.128 7.72V22H12.208V19.872C11.7973 20.656 11.172 21.272 10.332 21.72C9.492 22.168 8.55867 22.392 7.532 22.392C6.3 22.392 5.18933 22.0747 4.2 21.44C3.22933 20.8053 2.464 19.9187 1.904 18.78C1.36267 17.6227 1.092 16.316 1.092 14.86C1.092 13.404 1.36267 12.1067 1.904 10.968C2.464 9.81067 3.22933 8.91467 4.2 8.28C5.18933 7.64533 6.3 7.328 7.532 7.328C8.55867 7.328 9.492 7.552 10.332 8C11.172 8.448 11.7973 9.064 12.208 9.848V7.72H16.128ZM8.708 18.808C9.80933 18.808 10.6773 18.4533 11.312 17.744C11.9653 17.016 12.292 16.0547 12.292 14.86C12.292 13.6653 11.9653 12.7133 11.312 12.004C10.6773 11.276 9.80933 10.912 8.708 10.912C7.60667 10.912 6.72933 11.276 6.076 12.004C5.44133 12.7133 5.124 13.6653 5.124 14.86C5.124 16.0547 5.44133 17.016 6.076 17.744C6.72933 18.4533 7.60667 18.808 8.708 18.808ZM21.1275 11.192H18.4955V7.72H21.1275V6.012C21.1275 2.83867 22.8822 1.252 26.3915 1.252C27.1569 1.252 27.9595 1.336 28.7995 1.504V4.864C28.2022 4.752 27.6702 4.696 27.2035 4.696C26.4569 4.696 25.9155 4.836 25.5795 5.116C25.2622 5.396 25.1035 5.83467 25.1035 6.432V7.72H28.7995V11.192H25.1035V22H21.1275V11.192ZM36.0859 22.224C34.9285 22.224 33.9299 21.9907 33.0899 21.524C32.2499 21.0573 31.6059 20.3947 31.1579 19.536C30.7099 18.6587 30.4859 17.632 30.4859 16.456C30.4859 15.5413 30.5885 14.6267 30.7939 13.712C30.9992 12.7787 31.2979 11.9013 31.6899 11.08C32.1005 10.2587 32.6045 9.53067 33.2019 8.896C33.7992 8.24267 34.4992 7.72933 35.3019 7.356C36.1045 6.98267 37.0005 6.796 37.9899 6.796C39.1659 6.796 40.1645 7.02933 40.9859 7.496C41.8259 7.96267 42.4699 8.63467 42.9179 9.512C43.3659 10.3707 43.5899 11.3973 43.5899 12.592C43.5899 13.5067 43.4872 14.4213 43.2819 15.336C43.0765 16.2507 42.7685 17.128 42.3579 17.968C41.9659 18.7893 41.4712 19.5173 40.8739 20.152C40.2765 20.7867 39.5765 21.2907 38.7739 21.664C37.9712 22.0373 37.0752 22.224 36.0859 22.224ZM36.2259 20.18C36.7672 20.18 37.2712 20.068 37.7379 19.844C38.2232 19.62 38.6712 19.2933 39.0819 18.864C39.4925 18.416 39.8379 17.8747 40.1179 17.24C40.4165 16.5867 40.6499 15.8493 40.8179 15.028C40.9859 14.2067 41.0699 13.3013 41.0699 12.312C41.0699 11.752 40.9672 11.2107 40.7619 10.688C40.5752 10.1467 40.2579 9.708 39.8099 9.372C39.3619 9.01733 38.7645 8.84 38.0179 8.84C37.4019 8.84 36.8325 8.97067 36.3099 9.232C35.7872 9.49333 35.3205 9.86667 34.9099 10.352C34.4992 10.8187 34.1445 11.3787 33.8459 12.032C33.5659 12.6667 33.3512 13.3667 33.2019 14.132C33.0525 14.8973 32.9779 15.7 32.9779 16.54C32.9779 17.6973 33.2579 18.5933 33.8179 19.228C34.3965 19.8627 35.1992 20.18 36.2259 20.18ZM35.1619 26.9C34.8072 26.9 34.4992 26.788 34.2379 26.564C33.9765 26.34 33.8459 26.0133 33.8459 25.584C33.8459 25.0987 33.9859 24.6787 34.2659 24.324C34.5645 23.9693 34.9752 23.792 35.4979 23.792C35.7965 23.792 36.0299 23.848 36.1979 23.96C36.3845 24.072 36.5245 24.2213 36.6179 24.408C36.7112 24.5947 36.7579 24.8093 36.7579 25.052C36.7579 25.6307 36.5899 26.0787 36.2539 26.396C35.9365 26.732 35.5725 26.9 35.1619 26.9ZM46.6832 1.504H50.6592V22H46.6832V1.504ZM69.3722 7.804L67.3562 22H64.7242L65.0602 19.564C64.5189 20.4413 63.7629 21.132 62.7922 21.636C61.8402 22.14 60.7949 22.392 59.6562 22.392C58.4989 22.392 57.4815 22.1307 56.6042 21.608C55.7269 21.0667 55.0362 20.32 54.5322 19.368C54.0469 18.3973 53.8042 17.2773 53.8042 16.008C53.8042 14.776 54.0375 13.5813 54.5042 12.424C54.9709 11.2667 55.6149 10.2867 56.4362 9.484C57.0895 8.83067 57.8549 8.32667 58.7322 7.972C59.6095 7.59867 60.5335 7.412 61.5042 7.412C62.6989 7.412 63.7349 7.68267 64.6122 8.224C65.5082 8.76533 66.0962 9.49333 66.3762 10.408L66.7402 7.804H69.3722ZM63.9962 18.528C64.5935 17.9867 65.0602 17.3053 65.3962 16.484C65.7322 15.644 65.9002 14.7947 65.9002 13.936C65.9002 12.6853 65.5455 11.696 64.8362 10.968C64.1455 10.2213 63.1935 9.848 61.9802 9.848C61.2709 9.848 60.6082 9.97867 59.9922 10.24C59.3762 10.4827 58.8349 10.8373 58.3682 11.304C57.7709 11.9013 57.3135 12.6107 56.9962 13.432C56.6975 14.2533 56.5482 15.0747 56.5482 15.896C56.5482 17.128 56.8842 18.1173 57.5562 18.864C58.2469 19.592 59.1895 19.956 60.3842 19.956C61.0749 19.956 61.7282 19.8347 62.3442 19.592C62.9789 19.3307 63.5295 18.976 63.9962 18.528ZM64.8362 1.252H68.1122L63.8842 5.452H61.0842L64.8362 1.252ZM81.1118 7.328C82.3438 7.328 83.4545 7.64533 84.4438 8.28C85.4332 8.91467 86.1985 9.81067 86.7398 10.968C87.2998 12.1067 87.5798 13.404 87.5798 14.86C87.5798 16.316 87.2998 17.6227 86.7398 18.78C86.1985 19.9187 85.4332 20.8053 84.4438 21.44C83.4545 22.0747 82.3438 22.392 81.1118 22.392C80.0852 22.392 79.1518 22.168 78.3118 21.72C77.4718 21.272 76.8465 20.6467 76.4358 19.844V22H72.5438V1.504H76.5198V9.708C76.9492 8.96133 77.5652 8.38267 78.3678 7.972C79.1892 7.54267 80.1038 7.328 81.1118 7.328ZM79.9358 18.808C81.0372 18.808 81.9052 18.4533 82.5398 17.744C83.1932 17.016 83.5198 16.0547 83.5198 14.86C83.5198 13.6653 83.1932 12.7133 82.5398 12.004C81.9052 11.276 81.0372 10.912 79.9358 10.912C78.8345 10.912 77.9665 11.276 77.3318 12.004C76.6972 12.7133 76.3798 13.6653 76.3798 14.86C76.3798 16.0547 76.6972 17.016 77.3318 17.744C77.9665 18.4533 78.8345 18.808 79.9358 18.808ZM94.6514 1.252H97.8154L94.1754 5.452H91.5434L94.6514 1.252ZM91.9634 7.804H94.5954L92.5794 22H89.9474L91.9634 7.804Z" fill="#FDFDF8"/>
</svg>
