<svg width="88" height="29" viewBox="0 0 88 29" fill="none" xmlns="http://www.w3.org/2000/svg">
<path d="M9.82538 8.98099L19.0864 7.32324C20.0789 7.14556 21.1006 7.37546 21.9263 7.96238C22.7519 8.5493 23.3141 9.44514 23.4892 10.4529L24.1538 14.2794L13.2447 16.2322C12.6902 16.3314 12.1195 16.203 11.6582 15.8751C11.1969 15.5472 10.8829 15.0467 10.7851 14.4838L9.82918 8.9803L9.82538 8.98099Z" fill="#14213D"/>
<path d="M10.9403 20.0805C10.2672 20.2009 9.5746 20.0449 9.01471 19.6469C8.4548 19.249 8.07342 18.6417 7.95433 17.9585L7.41773 14.8645L5.48755 15.2074L6.19014 19.2498C6.35621 20.1975 6.88626 21.0397 7.66372 21.5909C8.4412 22.1419 9.40247 22.357 10.3362 22.1889L18.0704 20.8036L17.7326 18.8559L10.9403 20.0805Z" fill="#14213D"/>
<path d="M12.3937 17.0825C12.1524 17.126 11.905 17.1207 11.6657 17.067C11.4264 17.0132 11.1999 16.9121 10.9991 16.7694C10.7983 16.6268 10.6272 16.4453 10.4956 16.2354C10.3639 16.0256 10.2744 15.7914 10.2319 15.5463L9.57181 11.7411L7.65128 12.084L8.5353 17.1786C8.65206 17.8505 9.02694 18.4478 9.5775 18.8392C10.1281 19.2305 10.8092 19.3839 11.4711 19.2654L20.2341 17.6978L19.8964 15.7384L12.3937 17.0825Z" fill="#FCA311"/>
<path d="M14.459 0C11.6371 0 8.87849 0.84949 6.53213 2.44106C4.18578 4.03261 2.35703 6.29474 1.27713 8.94141C0.197221 11.5881 -0.08533 14.5004 0.465201 17.3101C1.01573 20.1197 2.37463 22.7005 4.37002 24.7262C6.36543 26.7519 8.90773 28.1314 11.6754 28.6904C14.4432 29.2492 17.312 28.9624 19.9191 27.8661C22.5262 26.7697 24.7546 24.9134 26.3223 22.5314C27.89 20.1495 28.727 17.3491 28.727 14.4843C28.727 10.6428 27.2237 6.95871 24.5479 4.24237C21.8721 1.52602 18.2431 0 14.459 0ZM14.459 27.3991C11.9424 27.3991 9.48229 26.6416 7.38981 25.2222C5.29736 23.8027 3.66652 21.7853 2.70355 19.4249C1.74057 17.0646 1.48871 14.4674 1.97981 11.9617C2.47093 9.45606 3.68295 7.15452 5.46258 5.34815C7.24223 3.54178 9.50958 2.31173 11.9779 1.81356C14.4462 1.31538 17.0046 1.57146 19.3295 2.54939C21.6544 3.52734 23.6415 5.18322 25.0393 7.30763C26.4372 9.43203 27.1832 11.9295 27.1828 14.4843C27.1828 16.1805 26.8537 17.86 26.2142 19.4271C25.5748 20.994 24.6375 22.4178 23.456 23.6172C22.2743 24.8164 20.8717 25.7677 19.3281 26.4166C17.7843 27.0654 16.1298 27.3993 14.459 27.3991Z" fill="#14213D"/>
<path d="M39.7865 12.9246C40.5648 12.9246 41.2566 12.7616 41.8372 12.4606L43.1219 13.5516L43.9125 12.5985L42.8378 11.6956C43.5295 10.9306 43.9125 9.82708 43.9125 8.48524C43.9125 5.73887 42.3313 4.02081 39.7865 4.02081C37.2418 4.02081 35.6729 5.73887 35.6729 8.48524C35.6729 11.2316 37.2418 12.9246 39.7865 12.9246ZM39.7865 11.5201C38.2671 11.5201 37.3653 10.3789 37.3653 8.48524C37.3653 6.57908 38.2671 5.42535 39.7865 5.42535C41.3183 5.42535 42.2201 6.57908 42.2201 8.48524C42.2201 9.4007 42.0101 10.1406 41.6272 10.6548L40.2436 9.48849L39.4653 10.4541L40.5895 11.4072C40.3424 11.4824 40.0706 11.5201 39.7865 11.5201ZM49.2971 9.91486C49.2971 10.8178 48.7659 11.5953 47.9136 11.5953C47.1353 11.5953 46.7647 11.0937 46.7647 10.1782V6.01476H45.1835V10.5043C45.1835 12.122 46.0606 12.9246 47.37 12.9246C48.1853 12.9246 48.8648 12.5735 49.2971 11.8336V12.7365H50.8783V6.01476H49.2971V9.91486ZM58.3779 10.5419H56.7102C56.5002 11.2567 55.9937 11.6078 55.2525 11.6078C54.289 11.6078 53.7331 10.9306 53.659 9.70168H58.3285V9.32546C58.3285 7.15595 57.1302 5.82665 55.1908 5.82665C53.2637 5.82665 52.0283 7.10578 52.0283 9.38816C52.0283 11.5828 53.2513 12.9246 55.2525 12.9246C56.8337 12.9246 58.0196 12.0969 58.3779 10.5419ZM55.1908 7.14341C56.0184 7.14341 56.5249 7.69519 56.6731 8.69843H53.696C53.8443 7.68265 54.3507 7.14341 55.1908 7.14341ZM63.6288 9.91486C63.6288 10.8178 63.0976 11.5953 62.2452 11.5953C61.4669 11.5953 61.0964 11.0937 61.0964 10.1782V6.01476H59.5151V10.5043C59.5151 12.122 60.3922 12.9246 61.7017 12.9246C62.517 12.9246 63.1964 12.5735 63.6288 11.8336V12.7365H65.21V6.01476H63.6288V9.91486ZM72.7095 10.5419H71.0418C70.8318 11.2567 70.3253 11.6078 69.5842 11.6078C68.6206 11.6078 68.0647 10.9306 67.9906 9.70168H72.6601V9.32546C72.6601 7.15595 71.4618 5.82665 69.5224 5.82665C67.5953 5.82665 66.36 7.10578 66.36 9.38816C66.36 11.5828 67.5829 12.9246 69.5842 12.9246C71.1654 12.9246 72.3513 12.0969 72.7095 10.5419ZM69.5224 7.14341C70.35 7.14341 70.8565 7.69519 71.0048 8.69843H68.0277C68.1759 7.68265 68.6824 7.14341 69.5224 7.14341ZM35.957 24.6892H37.6247V21.3785H39.1071C39.9348 21.3785 40.2559 21.5541 40.4536 22.4319L40.9477 24.6892H42.6772L42.0472 22.1184C41.8742 21.4161 41.6148 20.9646 41.1824 20.6888C41.8989 20.3 42.3066 19.6354 42.3066 18.6823C42.3066 17.1272 41.133 16.1616 39.243 16.1616H35.957V24.6892ZM39.2059 17.5035C40.0954 17.5035 40.6018 18.0051 40.6018 18.7701C40.6018 19.5476 40.1077 20.0492 39.1689 20.0492H37.6247V17.5035H39.2059ZM49.7766 22.4946H48.1089C47.8989 23.2094 47.3924 23.5605 46.6512 23.5605C45.6877 23.5605 45.1318 22.8834 45.0577 21.6544H49.7272V21.2782C49.7272 19.1086 48.5289 17.7794 46.5895 17.7794C44.6624 17.7794 43.427 19.0585 43.427 21.3409C43.427 23.5355 44.65 24.8773 46.6512 24.8773C48.2324 24.8773 49.4183 24.0496 49.7766 22.4946ZM46.5895 19.0961C47.4171 19.0961 47.9236 19.6479 48.0718 20.6511H45.0947C45.243 19.6353 45.7494 19.0961 46.5895 19.0961ZM56.6455 20.3502C56.4232 18.6321 55.2373 17.7794 53.7302 17.7794C51.8278 17.7794 50.6048 19.0585 50.6048 21.3409C50.6048 23.5229 51.7907 24.8773 53.7425 24.8773C55.2373 24.8773 56.3985 24.0872 56.695 22.4068H55.1014C54.9408 23.1718 54.459 23.548 53.7796 23.548C52.779 23.548 52.2354 22.7579 52.2354 21.3409C52.2354 19.8987 52.7543 19.1086 53.7302 19.1086C54.3973 19.1086 54.9161 19.4723 55.0643 20.3502H56.6455ZM63.8307 22.4946H62.163C61.953 23.2094 61.4465 23.5605 60.7053 23.5605C59.7417 23.5605 59.1859 22.8834 59.1117 21.6544H63.7812V21.2782C63.7812 19.1086 62.583 17.7794 60.6435 17.7794C58.7164 17.7794 57.4811 19.0585 57.4811 21.3409C57.4811 23.5355 58.7041 24.8773 60.7053 24.8773C62.2865 24.8773 63.4724 24.0496 63.8307 22.4946ZM60.6435 19.0961C61.4712 19.0961 61.9777 19.6479 62.1259 20.6511H59.1488C59.297 19.6353 59.8035 19.0961 60.6435 19.0961ZM64.9679 17.215H66.5491V15.66H64.9679V17.215ZM64.9679 24.6892H66.5491V17.9675H64.9679V24.6892ZM69.577 27.4481V23.9618C69.9847 24.5638 70.59 24.8773 71.3188 24.8773C73.0235 24.8773 74.1106 23.5982 74.1106 21.3158C74.1106 19.1212 73.0483 17.7794 71.3188 17.7794C70.59 17.7794 69.997 18.1179 69.577 18.7324V17.9675H67.9958V27.4481H69.577ZM71.0347 19.1086C71.9612 19.1086 72.48 19.8987 72.48 21.3158C72.48 22.7579 71.9735 23.548 71.0347 23.548C70.1082 23.548 69.577 22.7454 69.577 21.3158C69.577 19.8862 70.0835 19.1086 71.0347 19.1086ZM75.4681 22.5949C75.4681 24.0998 76.1105 24.8773 77.457 24.8773C77.8894 24.8773 78.2476 24.8021 78.4205 24.7143V23.5355H78.1241C77.247 23.5355 77.0493 23.1592 77.0493 22.457V19.209H78.4452V17.9675H77.0493V16.425H75.4681V17.9675H74.6158V19.209H75.4681V22.5949ZM80.6937 19.7733C80.6937 19.3469 81.0643 19.0334 81.6943 19.0334C82.4479 19.0334 82.9173 19.3595 83.0408 20.1746H84.622C84.4244 18.5067 83.2755 17.7794 81.7561 17.7794C80.0266 17.7794 79.1866 18.7826 79.1866 19.8736C79.1866 22.5949 83.2755 21.3032 83.2755 22.8081C83.2755 23.2972 82.8679 23.6358 82.0896 23.6358C81.262 23.6358 80.6937 23.2219 80.5825 22.4946H79.0013C79.236 24.1123 80.4096 24.8773 82.0402 24.8773C83.6955 24.8773 84.8691 23.9995 84.8691 22.7078C84.8691 20.0116 80.6937 21.3158 80.6937 19.7733Z" fill="#14213D"/>
</svg>
