<svg width="24" height="24" viewBox="0 0 24 24" fill="none" xmlns="http://www.w3.org/2000/svg">
<rect width="24" height="24" rx="5" fill="url(#paint0_linear_558_1518)" fill-opacity="0.45"/>
<path d="M8.97354 7.77H11.8465C12.8172 7.77 13.5842 8.017 14.1475 8.511C14.7109 9.005 14.9925 9.67667 14.9925 10.526C14.9925 11.0547 14.8495 11.514 14.5635 11.904C14.2775 12.294 13.9179 12.567 13.4845 12.723C13.9265 12.8097 14.2559 12.983 14.4725 13.243C14.6892 13.503 14.8192 13.88 14.8625 14.374L15.0965 17H13.7965L13.5885 14.556C13.5452 14.1227 13.4022 13.815 13.1595 13.633C12.9255 13.4423 12.5485 13.347 12.0285 13.347H10.2475V17H8.97354V7.77ZM11.8205 12.151C12.4012 12.151 12.8519 12.0123 13.1725 11.735C13.5019 11.4577 13.6665 11.0677 13.6665 10.565C13.6665 10.0623 13.5019 9.67233 13.1725 9.395C12.8519 9.109 12.4012 8.966 11.8205 8.966H10.2475V12.151H11.8205Z" fill="#FDFDF8" fill-opacity="0.8"/>
<defs>
<linearGradient id="paint0_linear_558_1518" x1="12" y1="0" x2="12" y2="24" gradientUnits="userSpaceOnUse">
<stop stop-color="#070707"/>
<stop offset="1" stop-color="#070707" stop-opacity="0.8"/>
</linearGradient>
</defs>
</svg>
