<svg width="25" height="25" viewBox="0 0 25 25" fill="none" xmlns="http://www.w3.org/2000/svg">
<rect x="0.5" y="0.5" width="24" height="24" rx="5" fill="url(#paint0_linear_590_811)" fill-opacity="0.45"/>
<path d="M12.6325 17.708C11.9739 17.708 11.3932 17.578 10.8905 17.318C10.3879 17.0493 9.98487 16.6767 9.68154 16.2C9.38687 15.7147 9.21354 15.1557 9.16154 14.523L10.4745 14.432C10.5352 14.874 10.6609 15.251 10.8515 15.563C11.0422 15.8663 11.2892 16.1003 11.5925 16.265C11.8959 16.421 12.2512 16.499 12.6585 16.499C13.0572 16.499 13.3952 16.447 13.6725 16.343C13.9499 16.239 14.1579 16.0873 14.2965 15.888C14.4439 15.68 14.5175 15.4373 14.5175 15.16C14.5175 14.8653 14.4482 14.6183 14.3095 14.419C14.1795 14.211 13.9412 14.0203 13.5945 13.847C13.2479 13.665 12.7452 13.4873 12.0865 13.314C11.4279 13.132 10.9035 12.9327 10.5135 12.716C10.1235 12.4907 9.83321 12.222 9.64254 11.91C9.46054 11.5893 9.36954 11.1907 9.36954 10.714C9.36954 10.194 9.49521 9.73467 9.74654 9.336C9.99787 8.92867 10.3575 8.61667 10.8255 8.4C11.2935 8.17467 11.8439 8.062 12.4765 8.062C13.0919 8.062 13.6249 8.18767 14.0755 8.439C14.5349 8.69033 14.8989 9.04133 15.1675 9.492C15.4449 9.934 15.6182 10.4453 15.6875 11.026L14.3745 11.104C14.3225 10.74 14.2185 10.4193 14.0625 10.142C13.9065 9.86467 13.6942 9.65233 13.4255 9.505C13.1569 9.349 12.8319 9.271 12.4505 9.271C11.9132 9.271 11.4842 9.401 11.1635 9.661C10.8515 9.91233 10.6955 10.246 10.6955 10.662C10.6955 10.9393 10.7562 11.169 10.8775 11.351C10.9989 11.5243 11.2069 11.6803 11.5015 11.819C11.7962 11.949 12.2252 12.092 12.7885 12.248C13.5425 12.4473 14.1362 12.677 14.5695 12.937C15.0115 13.197 15.3322 13.509 15.5315 13.873C15.7395 14.2283 15.8435 14.6703 15.8435 15.199C15.8435 15.6843 15.7092 16.1177 15.4405 16.499C15.1719 16.8803 14.7949 17.1793 14.3095 17.396C13.8242 17.604 13.2652 17.708 12.6325 17.708Z" fill="white" fill-opacity="0.8"/>
<defs>
<linearGradient id="paint0_linear_590_811" x1="12.5" y1="0.5" x2="12.5" y2="24.5" gradientUnits="userSpaceOnUse">
<stop stop-color="#070707"/>
<stop offset="1" stop-color="#070707" stop-opacity="0.8"/>
</linearGradient>
</defs>
</svg>
