<svg width="143" height="29" viewBox="0 0 143 29" fill="none" xmlns="http://www.w3.org/2000/svg">
<g clip-path="url(#clip0_606_1732)">
<mask id="mask0_606_1732" style="mask-type:luminance" maskUnits="userSpaceOnUse" x="0" y="0" width="28" height="29">
<path d="M28 0.5L0 0.5L0 28.5H28V0.5Z" fill="white"/>
</mask>
<g mask="url(#mask0_606_1732)">
<path d="M7.84 11.42C14.3349 11.42 19.6 6.15489 19.6 -0.339975C19.6 -6.83484 14.3349 -12.1 7.84 -12.1C1.34513 -12.1 -3.92 -6.83484 -3.92 -0.339975C-3.92 6.15489 1.34513 11.42 7.84 11.42Z" stroke="#0071E3" stroke-width="2.5"/>
<path d="M7.84 41.1001C14.3349 41.1001 19.6 35.8349 19.6 29.3401C19.6 22.8452 14.3349 17.5801 7.84 17.5801C1.34513 17.5801 -3.92 22.8452 -3.92 29.3401C-3.92 35.8349 1.34513 41.1001 7.84 41.1001Z" stroke="#0071E3" stroke-width="2.5"/>
<path d="M20.16 11.42C26.6549 11.42 31.92 6.15489 31.92 -0.339975C31.92 -6.83484 26.6549 -12.1 20.16 -12.1C13.6651 -12.1 8.40001 -6.83484 8.40001 -0.339975C8.40001 6.15489 13.6651 11.42 20.16 11.42Z" stroke="#0071E3" stroke-width="2.5"/>
<path d="M20.16 41.1001C26.6549 41.1001 31.92 35.8349 31.92 29.3401C31.92 22.8452 26.6549 17.5801 20.16 17.5801C13.6651 17.5801 8.40001 22.8452 8.40001 29.3401C8.40001 35.8349 13.6651 41.1001 20.16 41.1001Z" stroke="#0071E3" stroke-width="2.5"/>
<circle cx="14" cy="14.5" r="1" fill="#0071E3" stroke="#0071E3"/>
</g>
</g>
<path d="M49.486 9.998H44.536V23H41.302V9.998H36.33V7.204H49.486V9.998ZM53.1108 23.242C49.7008 23.242 47.3688 20.8 47.3688 17.214C47.3688 13.804 49.7228 11.208 53.0008 11.208C56.4328 11.208 58.2808 13.76 58.2808 16.994V17.896H50.3168C50.5368 19.656 51.6148 20.712 53.1328 20.712C54.3208 20.712 55.2668 20.14 55.6188 19.018L58.2148 19.942C57.3788 22.054 55.4208 23.242 53.1108 23.242ZM52.9788 13.672C51.7468 13.672 50.8008 14.398 50.4268 15.806H55.2228C55.2008 14.662 54.4748 13.672 52.9788 13.672ZM59.6636 23V11.428H62.7436V12.616C63.3816 11.868 64.4376 11.208 65.9116 11.208C68.3316 11.208 69.8056 12.858 69.8056 15.366V23H66.7256V16.246C66.7256 14.948 66.1976 14.024 64.8776 14.024C63.7996 14.024 62.7436 14.794 62.7436 16.312V23H59.6636ZM74.2109 17.214C74.2109 19.392 75.2889 20.646 76.9169 20.646C78.1929 20.646 78.9629 19.766 79.2489 18.578L81.9109 19.766C81.3829 21.658 79.5789 23.242 76.8949 23.242C73.5289 23.242 71.1529 20.8 71.1529 17.214C71.1529 13.65 73.5289 11.208 76.8949 11.208C79.5569 11.208 81.3169 12.748 81.8669 14.618L79.2489 15.85C78.9629 14.662 78.1929 13.782 76.9169 13.782C75.2889 13.782 74.2109 15.058 74.2109 17.214ZM82.9535 23V7.204H86.0335V12.616C86.6715 11.868 87.7275 11.208 89.2015 11.208C91.6215 11.208 93.0955 12.858 93.0955 15.366V23H90.0155V16.246C90.0155 14.948 89.4875 14.024 88.1675 14.024C87.0895 14.024 86.0335 14.794 86.0335 16.312V23H82.9535ZM111.342 9.998H106.392V23H103.158V9.998H98.1861V7.204H111.342V9.998ZM113.332 23.198C111.066 23.198 109.394 21.834 109.394 19.788C109.394 17.478 111.242 16.51 113.574 16.092L116.456 15.542V15.366C116.456 14.376 115.95 13.76 114.674 13.76C113.53 13.76 112.936 14.266 112.672 15.3L109.746 14.75C110.274 12.792 112.034 11.208 114.784 11.208C117.71 11.208 119.47 12.55 119.47 15.234V19.964C119.47 20.58 119.734 20.778 120.416 20.69V23C118.458 23.286 117.27 22.89 116.764 21.922C116.016 22.736 114.85 23.198 113.332 23.198ZM116.456 18.886V17.698L114.19 18.16C113.178 18.358 112.43 18.688 112.43 19.612C112.43 20.404 113.024 20.866 113.948 20.866C115.246 20.866 116.456 20.184 116.456 18.886ZM124.793 7.204V23H121.713V7.204H124.793ZM129.96 7.204V15.916L134.008 11.428H137.704L133.458 15.828L138.034 23H134.514L131.324 18.05L129.96 19.458V23H126.88V7.204H129.96ZM138.354 23V19.436H141.962V23H138.354Z" fill="white"/>
<defs>
<clipPath id="clip0_606_1732">
<rect y="0.5" width="28" height="28" rx="14" fill="white"/>
</clipPath>
</defs>
</svg>
