<svg width="59" height="16" viewBox="0 0 59 16" fill="none" xmlns="http://www.w3.org/2000/svg">
<path d="M4.84 14.74L4.88 15H0.88L2.06 14.06C2.94 13.36 3.98 12.3 4.68 11.4L6.58 8.86L3.96 4C3.44 3 2.52 1.82 1.72 1.04L0.88 0.239999H7.92L7.84 0.539999C7.56 1.64 7.74 3 8.26 4L9.1 5.56L10.38 3.84C11.08 2.94 11.42 1.62 11.28 0.5L11.22 0.239999H15.24L14.06 1.2C13.16 1.88 12.14 2.94 11.44 3.84L9.54 6.38L12.16 11.24C12.68 12.24 13.58 13.42 14.4 14.2L15.24 15H8.2L8.28 14.7C8.56 13.6 8.38 12.24 7.86 11.24L7.02 9.68L5.72 11.4C5.04 12.3 4.7 13.62 4.84 14.74ZM20.9111 14.58L21.1111 15H15.2111L15.4311 14.58C15.9311 13.56 16.2711 12.14 16.2711 11V5.1C16.2711 3.96 15.9311 2.52 15.4311 1.52L15.2111 1.08L20.0511 0.239999V11C20.0511 12.14 20.3911 13.56 20.9111 14.58ZM21.4134 5.72L21.1934 5.3L26.0334 4.46V11C26.0334 12.82 26.5334 14.02 27.6134 14.02C28.8534 14.02 29.7734 12.52 29.8534 10.5V9.28C29.8534 8.18 29.5134 6.74 29.0134 5.72L28.7934 5.3L33.6534 4.46V11C33.6534 12.12 33.9934 13.54 34.4934 14.56L34.7134 15H29.8534V13.4C29.0734 14.56 27.8334 15.22 26.2134 15.22C23.7534 15.22 22.2534 13.7 22.2534 11.2V9.28C22.2534 8.18 21.9134 6.74 21.4134 5.72ZM42.8911 14.3C42.2311 14.88 41.3111 15.22 40.1711 15.22C37.1711 15.22 35.0911 12.94 35.0911 9.6C35.0911 6.44 36.9511 4.26 39.5311 4.26C40.9911 4.26 42.1311 4.92 42.8911 6.08V5.1C42.8911 3.96 42.5511 2.52 42.0511 1.52L41.8311 1.08L46.6911 0.239999V11C46.6911 12.14 47.0111 13.56 47.5311 14.58L47.7311 15H42.8911V14.3ZM38.8911 9.42C38.8911 12.3 39.7711 14.26 41.1311 14.26C42.1311 14.26 42.8911 13.22 42.8911 11.8V9.78C42.8111 7.1 41.9111 5.3 40.6911 5.3C39.5511 5.3 38.8911 6.92 38.8911 9.42ZM58.1842 7.94C58.1842 10.48 55.5242 11.76 52.3042 11.42C52.7842 12.62 53.7042 13.32 54.9242 13.32C56.2242 13.32 57.6442 12.58 58.4442 11.44C58.0642 13.86 55.9842 15.22 53.5642 15.22C50.5042 15.22 48.1042 13.04 48.1042 9.74C48.1042 6.44 50.4842 4.26 53.6842 4.26C56.4842 4.26 58.1842 5.92 58.1842 7.94ZM52.1442 11C55.9842 9.08 55.8442 5.1 54.0042 5.1C52.7642 5.1 51.9042 6.96 51.9042 9.16C51.9042 9.84 51.9842 10.46 52.1442 11Z" fill="#00AB44"/>
</svg>
